<?xml version="1.0" encoding="utf-8"?> <!-- Generator: Adobe Illustrator 22.1.0, SVG Export Plug-In . SVG Version: 6.00 Build 0)  --> <svg version="1.1" id="Layer_1" xmlns="http://www.w3.org/2000/svg" xmlns:xlink="http://www.w3.org/1999/xlink" x="0px" y="0px" viewBox="0 0 188.9 84.1" style="enable-background:new 0 0 188.9 84.1;" xml:space="preserve"> <style type="text/css"> .st0{fill:#FFFFFF;} .st1{fill-rule:evenodd;clip-rule:evenodd;fill:#FFFFFF;} </style> <g> <g> <g> <path class="st0" d="M61,43.9L81.8,1.2H66.7l-12.6,29H54l-12.4-29H26.8l23.1,48.2C53.7,47.1,57.4,45.3,61,43.9z M96.2,36.8 c11.5,0.4,25.7,5,36.1,7c2.6,0.5,4.9,0.9,6.9,0.9c4.3,0.1,22.4-0.9,22.4-16.6c0-12.6-21.5-10.8-29.3-13.8 c-1.8-0.7-2.8-1.6-2.8-2.9c0-2,1.1-3.2,2.8-4c1.5-0.5,3.4-0.8,5.3-0.8c5.3,0,8.1,2,8.5,6.1h14.1C159.5,3.5,149.2,0,139.1,0 c-2.6,0-4.7,0.1-6.8,0.4c-8.7,0.9-13.3,3.9-15.4,7.1V1.2h-14.1v23.6c0,7.2-2.3,9.6-9.5,9.6c-7.3,0-9.5-2.4-9.5-9.6V7.5l-13,26.2 c0,2.7,1.3,4.7,4.7,6.1C81.6,37.8,88.5,36.6,96.2,36.8z M116.9,18.4c2.8,4.4,9.2,5.9,15.4,6.7c7.7,1.2,15.3,1.5,15.3,5.7 c0,2.9-2.7,4.7-9.1,4.7c-2,0-4.3-0.1-6.2-0.8c-2.3-0.8-4.1-2.4-4.1-5.7h-11.4V18.4z"/> <path class="st1" d="M148.7,47.5c-19.8,8-62.2-28.4-107.3,18h16.8c28.5-33,59.9-12.8,82.4-13.7c10.4-0.4,15.8-8.7,15.7-8.7 C156.1,43.1,153.9,45.5,148.7,47.5z M68.9,65.5H84c1.8-3.5,9.3-13.7,39.9-12.3c8.8,0.4,9.7,0,9.7,0s-4.3-0.4-8-1.1 C87.8,45.4,72.4,61.1,68.9,65.5z M93.5,65.5h14.2c2-8.1,21.2-10.3,21.2-10.3S103.6,54.1,93.5,65.5z"/> </g> </g> <g> <path class="st0" d="M3.9,74.2H8l3.9,7.8H9l-0.7-1.3H3.5L2.8,82H0L3.9,74.2z M6.1,76H5.7l-1.3,2.7h2.9L6.1,76z"/> <path class="st0" d="M23.9,82H20l-4.1-5.8c0-0.1-0.1-0.2-0.1-0.3c-0.1-0.1-0.1-0.1-0.1-0.1c0,0.1,0,0.1,0,0.2 c0.1,0.4,0.2,0.6,0.2,0.6V82h-2.4v-7.8h3.9l4.1,5.7c0,0.1,0.1,0.2,0.1,0.3c0,0.1,0.1,0.1,0.1,0.1c0-0.1,0-0.1,0-0.2 c-0.1-0.2-0.1-0.4-0.2-0.6v-5.3h2.4V82z"/> <path class="st0" d="M26,74.2h2.4v2.7h5.2v-2.7H36V82h-2.4v-3h-5.2v3H26V74.2z"/> <path class="st0" d="M48.9,79.9H49h0.1l2.9-5.7h2.7L50.8,82h-3.6l-3.9-7.8H46L48.9,79.9z"/> <path class="st0" d="M59.1,74.2h4.1l3.9,7.8h-2.8l-0.7-1.3h-4.7L58,82h-2.8L59.1,74.2z M63.4,72.3L63.4,72.3 c0,0.5-0.1,0.9-0.3,1.1c-0.2,0.2-0.6,0.4-1.1,0.4h-1.7c-0.9,0-1.4-0.5-1.4-1.5h0.7c0,0.4,0.3,0.6,0.8,0.6h1.5c0.3,0,0.4,0,0.6-0.1 c0.2-0.1,0.3-0.2,0.3-0.5c0,0,0,0,0-0.1H63.4z M61.3,76H61l-1.3,2.7h2.9L61.3,76z"/> <path class="st0" d="M79.2,82h-3.9l-4.1-5.8c0-0.1-0.1-0.2-0.1-0.3c0-0.1-0.1-0.1-0.1-0.1c0,0.1,0,0.1,0,0.2 c0.1,0.4,0.2,0.6,0.2,0.6V82h-2.4v-7.8h3.9l4.1,5.7c0,0.1,0.1,0.2,0.1,0.3c0,0.1,0.1,0.1,0.1,0.1c0-0.1,0-0.1,0-0.2 c-0.1-0.2-0.1-0.4-0.2-0.6v-5.3h2.4V82z"/> <path class="st0" d="M86.9,74.2h2.4v2.7h5.2v-2.7h2.4V82h-2.4v-3h-5.2v3h-2.4V74.2z"/> <path class="st0" d="M109.3,78.1c0,1.9-0.2,3-0.7,3.4c-0.5,0.4-2,0.6-4.5,0.6c-1.8,0-3-0.1-3.6-0.2c-0.7-0.2-1.2-0.5-1.3-1.1 c-0.1-0.4-0.2-1.3-0.2-2.7c0-1.9,0.2-3,0.7-3.4c0.5-0.4,2-0.6,4.5-0.6c2.5,0,4,0.2,4.4,0.6C109.1,75.1,109.3,76.2,109.3,78.1z M101.5,78.1c0,1,0.1,1.6,0.3,1.7c0.2,0.2,1,0.2,2.4,0.2c1.4,0,2.2-0.1,2.4-0.2c0.2-0.2,0.3-0.7,0.3-1.7c0-1-0.1-1.6-0.3-1.7 c-0.2-0.2-1-0.2-2.4-0.2c-1.4,0-2.2,0.1-2.4,0.2C101.6,76.5,101.5,77.1,101.5,78.1z M101.5,73.1l2.7-1.5l2.7,1.5l-0.3,0.7 l-2.4-0.6l-2.4,0.6L101.5,73.1z M103.3,82.5h1.8v1.6h-1.8V82.5z"/> <path class="st0" d="M110.8,82v-7.8h2.4V82H110.8z"/> <path class="st0" d="M125.6,79.9h0.1h0.1l2.9-5.7h2.7l-3.9,7.8h-3.6l-3.9-7.8h2.7L125.6,79.9z"/> <path class="st0" d="M132.3,82v-7.8h2.4V82H132.3z"/> <path class="st0" d="M136.3,82v-7.8h8.4v1.9h-6v1.1h5.7V79h-5.7v1.1h6V82H136.3z M137.8,73.1l2.7-1.5l2.7,1.5l-0.3,0.7l-2.4-0.6 l-2.4,0.6L137.8,73.1z M139.6,82.5h1.8v1.6h-1.8V82.5z"/> <path class="st0" d="M146.8,76.2v-2h9.3v2h-3.4V82h-2.4v-5.8H146.8z"/> <path class="st0" d="M167.9,74.2l2,4.4c0,0.1,0,0.2,0.1,0.5c0,0.3,0.1,0.4,0.1,0.4c0,0,0.1-0.1,0.1-0.3c0-0.2,0.1-0.4,0.1-0.7 l2-4.4h4.1V82h-2.4v-5.4c0-0.1,0-0.2,0.1-0.3c0-0.1,0.1-0.2,0.1-0.3c0-0.1,0-0.1-0.1-0.1c0,0-0.1,0-0.1,0.1c0,0.1-0.1,0.2-0.1,0.2 l-2.8,5.8h-2l-3-5.8c0-0.1-0.1-0.2-0.1-0.3c0-0.1-0.1-0.1-0.1-0.1c0,0-0.1,0-0.1,0.1c0,0,0,0.1,0.1,0.4c0,0.1,0,0.2,0,0.2V82h-2.4 v-7.8H167.9z"/> <path class="st0" d="M181,74.2l2,2.5c0.1,0.1,0.2,0.3,0.2,0.5c0,0.2,0.1,0.4,0.1,0.5c0,0,0-0.1,0.1-0.4c0-0.3,0.1-0.5,0.2-0.6 l2-2.5h3.3l-4.4,5.1V82h-2.4v-2.7l-4.4-5.1H181z M185.2,72.1c0,0.2,0,0.3-0.1,0.3c0,0.1-0.1,0.1-0.2,0.1c-0.2,0-0.5-0.1-1.1-0.2 c-0.6-0.2-0.9-0.2-1-0.3c-0.2,0-0.3-0.1-0.5-0.1c-0.4,0-0.7,0.2-0.9,0.5c-0.1,0.2-0.2,0.6-0.2,1h1c0-0.3,0.1-0.4,0.4-0.4 c0.2,0,0.6,0.1,1.2,0.3c0.7,0.2,1.2,0.3,1.5,0.3c0.3,0,0.6-0.1,0.8-0.4c0.1-0.1,0.1-0.2,0.2-0.4c0-0.1,0-0.4,0-0.7H185.2z"/> </g> </g> </svg>
