<?xml version="1.0" encoding="utf-8"?>
<!-- Generator: Adobe Illustrator 16.0.0, SVG Export Plug-In . SVG Version: 6.00 Build 0)  -->
<!DOCTYPE svg PUBLIC "-//W3C//DTD SVG 1.1//EN" "http://www.w3.org/Graphics/SVG/1.1/DTD/svg11.dtd">
<svg version="1.1" id="Layer_1" xmlns="http://www.w3.org/2000/svg" xmlns:xlink="http://www.w3.org/1999/xlink" x="0px" y="0px"
	 width="100px" height="50px" viewBox="0 0 100 50" enable-background="new 0 0 100 50" xml:space="preserve">
<g>
	<g>
		<g>
			<path fill="#27326D" d="M28.285,31.453L41.417,4.525h-9.551l-7.959,18.306H23.84L16.014,4.525H6.729L21.32,34.902
				C23.642,33.51,25.963,32.316,28.285,31.453z M50.438,27.01c7.23,0.266,16.183,3.117,22.75,4.377
				c1.592,0.332,3.051,0.598,4.377,0.598c2.721,0.066,14.129-0.598,14.129-10.413c0-7.893-13.531-6.832-18.506-8.689
				c-1.127-0.398-1.791-0.995-1.791-1.857c0-1.26,0.664-1.99,1.791-2.521c0.928-0.332,2.123-0.531,3.316-0.531
				c3.316,0,5.107,1.26,5.373,3.847h8.887c-0.398-5.837-6.898-8.026-13.332-8.026c-1.592,0-2.984,0.066-4.244,0.266
				c-5.439,0.597-8.357,2.454-9.75,4.444V4.525h-8.822v14.923c0,4.51-1.459,6.036-5.968,6.036c-4.577,0-5.97-1.526-5.97-6.036V8.505
				L34.519,25.02c0,1.658,0.862,2.917,2.985,3.847C41.218,27.607,45.596,26.877,50.438,27.01z M63.504,15.403
				c1.791,2.786,5.77,3.714,9.75,4.179c4.842,0.729,9.617,0.928,9.617,3.647c0,1.857-1.725,2.919-5.703,2.919
				c-1.262,0-2.721-0.066-3.914-0.532c-1.459-0.53-2.586-1.525-2.586-3.647h-7.164V15.403L63.504,15.403z"/>
			<path fill="#B92025" d="M83.535,33.775c-12.471,5.041-39.2-17.908-67.587,11.342h10.546c17.975-20.76,37.739-8.092,51.934-8.689
				c6.566-0.266,9.949-5.438,9.883-5.438C88.178,30.99,86.852,32.516,83.535,33.775z M33.193,45.117h9.551
				c1.127-2.189,5.903-8.689,25.137-7.76c5.572,0.266,6.168,0,6.168,0s-2.719-0.266-5.039-0.664
				C45.131,32.383,35.448,42.332,33.193,45.117z M48.713,45.117h8.955c1.26-5.107,13.396-6.5,13.396-6.5
				S55.146,37.887,48.713,45.117z"/>
		</g>
	</g>
</g>
</svg>
